HIERARCHY
ROOT Hips
{
	OFFSET 0.000000 0.000000 0.000000
	CHANNELS 6 Xposition Yposition Zposition Xrotation Yrotation Zrotation
	JOINT Spine
	{
		OFFSET 0.000000 0.044490 0.066735
		CHANNELS 3 Xrotation Yrotation Zrotation
		JOINT Spine1
		{
			OFFSET 0.000000 0.015451 0.087628
			CHANNELS 3 Xrotation Yrotation Zrotation
			JOINT Spine2
			{
				OFFSET 0.000000 0.007755 0.088641
				CHANNELS 3 Xrotation Yrotation Zrotation
				JOINT Spine3
				{
					OFFSET 0.000000 0.000000 0.088980
					CHANNELS 3 Xrotation Yrotation Zrotation
					JOINT Neck
					{
						OFFSET 0.000000 -0.033367 0.233572
						CHANNELS 3 Xrotation Yrotation Zrotation
						JOINT Head
						{
							OFFSET 0.000000 -0.021245 0.120488
							CHANNELS 3 Xrotation Yrotation Zrotation
							End Site
							{
								OFFSET 0.000000 0.000000 0.000000
							}
						}
					}
					JOINT RightShoulder
					{
						OFFSET -0.026917 -0.044862 0.145355
						CHANNELS 3 Xrotation Yrotation Zrotation
						JOINT RightArm
						{
							OFFSET -0.133690 0.000000 0.000000
							CHANNELS 3 Xrotation Yrotation Zrotation
							JOINT RightForeArm
							{
								OFFSET -0.257725 0.000000 0.000000
								CHANNELS 3 Xrotation Yrotation Zrotation
								JOINT RightHand
								{
									OFFSET -0.216749 0.000000 0.000000
									CHANNELS 3 Xrotation Yrotation Zrotation
									JOINT RightHandEnd
									{
										OFFSET -0.062518 0.000000 0.000000
										CHANNELS 3 Xrotation Yrotation Zrotation
										End Site
										{
											OFFSET 0.000000 0.000000 0.000000
										}
									}
									JOINT RightHandThumb1
									{
										OFFSET -0.025007 -0.041679 -0.016672
										CHANNELS 3 Xrotation Yrotation Zrotation
										End Site
										{
											OFFSET 0.000000 0.000000 0.000000
										}
									}
								}
							}
						}
					}
					JOINT LeftShoulder
					{
						OFFSET 0.026917 -0.044862 0.145355
						CHANNELS 3 Xrotation Yrotation Zrotation
						JOINT LeftArm
						{
							OFFSET 0.133690 0.000000 0.000000
							CHANNELS 3 Xrotation Yrotation Zrotation
							JOINT LeftForeArm
							{
								OFFSET 0.257725 0.000000 0.000000
								CHANNELS 3 Xrotation Yrotation Zrotation
								JOINT LeftHand
								{
									OFFSET 0.216749 0.000000 0.000000
									CHANNELS 3 Xrotation Yrotation Zrotation
									JOINT LeftHandEnd
									{
										OFFSET 0.062518 0.000000 0.000000
										CHANNELS 3 Xrotation Yrotation Zrotation
										End Site
										{
											OFFSET 0.000000 0.000000 0.000000
										}
									}
									JOINT LeftHandThumb1
									{
										OFFSET 0.025007 -0.041679 -0.016672
										CHANNELS 3 Xrotation Yrotation Zrotation
										End Site
										{
											OFFSET 0.000000 0.000000 0.000000
										}
									}
								}
							}
						}
					}
				}
			}
		}
	}
	JOINT RightUpLeg
	{
		OFFSET -0.079855 0.000000 -0.023329
		CHANNELS 3 Xrotation Yrotation Zrotation
		JOINT RightLeg
		{
			OFFSET 0.000000 0.000000 -0.366572
			CHANNELS 3 Xrotation Yrotation Zrotation
			JOINT RightFoot
			{
				OFFSET 0.000000 0.000000 -0.363650
				CHANNELS 3 Xrotation Yrotation Zrotation
				JOINT RightToeBase
				{
					OFFSET 0.000000 -0.114715 -0.041753
					CHANNELS 3 Xrotation Yrotation Zrotation
					End Site
					{
						OFFSET 0.000000 0.000000 0.000000
					}
				}
			}
		}
	}
	JOINT LeftUpLeg
	{
		OFFSET 0.079855 0.000000 -0.023329
		CHANNELS 3 Xrotation Yrotation Zrotation
		JOINT LeftLeg
		{
			OFFSET 0.000000 0.000000 -0.366572
			CHANNELS 3 Xrotation Yrotation Zrotation
			JOINT LeftFoot
			{
				OFFSET 0.000000 0.000000 -0.363650
				CHANNELS 3 Xrotation Yrotation Zrotation
				JOINT LeftToeBase
				{
					OFFSET 0.000000 -0.114715 -0.041753
					CHANNELS 3 Xrotation Yrotation Zrotation
					End Site
					{
						OFFSET 0.000000 0.000000 0.000000
					}
				}
			}
		}
	}
}
MOTION
Frames: 11
Frame Time: 0.033333
-0.026165 -0.673496 0.793628 -1.326300 1.152100 -86.698400 1.434900 1.133100 -0.533600 1.015800 0.367200 -0.196200 1.495500 -3.897300 -3.578000 0.333400 -0.416700 0.302900 -13.094400 -4.862200 -2.846800 -7.376000 3.019700 1.347300 6.298200 -15.528600 15.984900 9.337000 -26.632700 59.156300 0.000000 0.000100 83.395400 68.791700 -10.104400 -32.537500 0.000000 0.000000 0.000000 0.000000 0.000000 0.000000 2.542600 1.616500 -14.098400 12.104300 18.285100 -12.106500 -0.000100 -0.000100 -107.865500 61.092500 -10.590700 24.458400 0.000000 0.000000 0.000000 0.000000 0.000000 0.000000 -19.116900 3.756700 -12.553900 28.302100 0.000000 0.000000 -12.868900 -4.204600 -13.123500 -21.801900 0.000000 0.000000 -1.608500 5.559500 24.482400 17.919800 0.000000 0.000000 -13.682000 -0.388300 1.191400 -1.866100 0.000000 0.000000 
-0.019926 -0.673793 0.790369 -3.574100 1.378500 -86.978200 2.070800 1.755900 -0.738300 1.531900 0.517900 -0.138400 1.178100 -2.716000 -3.202600 0.190900 -0.080000 0.004600 -13.356600 -3.696300 -2.230900 -8.049800 2.203200 0.847000 6.906600 -14.911300 16.375100 13.668900 -28.931600 63.430900 0.000000 0.000100 78.660200 70.374400 -4.685800 -32.141400 0.000000 0.000000 0.000000 0.000000 0.000000 0.000000 3.409300 1.051000 -12.520300 9.711500 17.981600 -8.293900 -0.000100 -0.000100 -105.312100 64.477600 -11.047400 25.049800 0.000000 0.000000 0.000000 0.000000 0.000000 0.000000 -21.744400 7.254900 -12.867000 34.384900 0.000000 0.000000 -13.729300 -1.748100 -13.863800 -21.991200 0.000000 0.000000 -0.492900 8.356300 25.825500 15.273000 0.000000 0.000000 -13.464600 -0.791600 0.883500 -0.674900 0.000000 0.000000 
-0.013894 -0.672676 0.786963 -5.200100 1.720100 -86.884900 2.687400 2.114500 -0.833400 1.897600 0.511500 -0.095200 1.201500 -1.845300 -2.677200 0.167600 0.178700 -0.185300 -13.955400 -2.097600 -1.687700 -8.603300 1.328900 -0.208400 7.502400 -14.149300 17.011700 15.924500 -30.056800 65.120800 0.000000 0.000100 75.059600 71.514600 -0.770500 -31.890100 0.000000 0.000000 0.000000 0.000000 0.000000 0.000000 3.928100 1.553300 -11.443100 6.819300 17.849400 -5.785600 -0.000100 -0.000100 -101.786800 67.553000 -10.833200 25.082400 0.000000 0.000000 0.000000 0.000000 0.000000 0.000000 -23.824300 9.872900 -11.356300 40.345400 0.000000 0.000000 -14.049600 -2.351200 -12.218800 -22.945000 0.000000 0.000000 -0.637800 10.076800 25.123600 15.376900 0.000000 0.000000 -13.939800 -1.761700 2.039800 0.257400 0.000000 0.000000 
-0.008804 -0.669895 0.784210 -6.045500 2.008100 -86.787600 3.073400 2.126800 -0.805100 2.079900 0.267400 -0.057900 1.469500 -1.219400 -1.649900 0.221100 0.303500 -0.151500 -14.618400 -0.370000 -1.250600 -8.702000 0.557100 -1.700400 8.205000 -13.092100 17.566100 15.818300 -30.297700 64.106300 0.000000 0.000100 72.855700 73.026700 2.033500 -32.101600 0.000000 0.000000 0.000000 0.000000 0.000000 0.000000 3.955100 2.893100 -11.248700 4.316100 18.015900 -4.880100 -0.000100 -0.000100 -97.813300 69.213100 -10.815300 24.136900 0.000000 0.000000 0.000000 0.000000 0.000000 0.000000 -25.210100 11.288300 -8.527900 45.205900 0.000000 0.000000 -13.692400 -4.873300 -9.643800 -24.059100 0.000000 0.000000 -1.589800 10.556800 24.498100 17.103500 0.000000 0.000000 -14.561500 -2.463900 2.930000 0.621900 0.000000 0.000000 
-0.005392 -0.665787 0.782170 -6.228900 2.227600 -86.795600 3.214000 1.841900 -0.683100 2.162700 -0.146400 -0.004900 1.745900 -0.740100 -0.354400 0.279200 0.337400 0.030900 -14.928800 1.059100 -0.995000 -8.578300 -0.009500 -3.095800 8.728200 -11.906500 17.830400 14.065800 -29.944500 61.124500 0.000000 0.000100 71.804400 74.132100 3.690700 -32.736100 0.000000 0.000000 0.000000 0.000000 0.000000 0.000000 3.391500 4.455900 -11.709900 3.085200 18.659600 -5.433300 -0.000100 -0.000100 -94.205500 69.610800 -10.713200 22.856800 0.000000 0.000000 0.000000 0.000000 0.000000 0.000000 -25.767000 11.988600 -5.597200 48.440300 0.000000 0.000000 -13.197800 -7.175100 -7.968800 -24.589700 0.000000 0.000000 -2.662700 10.007300 25.136700 19.243500 0.000000 0.000000 -15.291200 -2.829000 2.891500 0.630000 0.000000 0.000000 
-0.003693 -0.661281 0.780799 -6.203000 2.406900 -86.670300 3.245500 1.560400 -0.536400 2.203400 -0.504900 0.039900 1.866700 -0.417600 0.541600 0.305700 0.357300 0.165700 -14.755600 1.792900 -0.949300 -8.583900 -0.322900 -3.805300 8.820300 -11.018500 17.839800 11.718800 -28.908000 57.246100 0.000000 0.000100 71.466900 73.621200 3.843900 -33.357500 0.000000 0.000000 0.000000 0.000000 0.000000 0.000000 2.432200 5.706800 -12.365000 3.355200 19.695600 -6.809200 -0.000100 -0.000100 -91.724300 69.649800 -10.381000 22.220100 0.000000 0.000000 0.000000 0.000000 0.000000 0.000000 -25.444900 12.908600 -3.285100 50.033000 0.000000 0.000000 -13.298000 -8.262200 -7.475900 -24.937400 0.000000 0.000000 -3.368100 9.169900 26.124900 20.965100 0.000000 0.000000 -16.003200 -2.960100 2.342500 0.721900 0.000000 0.000000 
-0.003094 -0.656791 0.780270 -6.282900 2.455900 -86.147300 3.213300 1.529000 -0.459100 2.175100 -0.688800 0.036600 1.843700 -0.230200 0.596500 0.307100 0.386000 0.107400 -14.373400 1.708300 -0.999500 -8.691200 -0.406600 -3.699600 8.576200 -10.658000 17.691900 9.528600 -27.181500 53.323900 0.000000 0.000100 71.447200 71.944400 3.023100 -33.592800 0.000000 0.000000 0.000000 0.000000 0.000000 0.000000 1.723800 6.349300 -12.857000 4.561000 20.913200 -8.613900 -0.000100 -0.000100 -90.617000 69.436300 -10.363800 22.422700 0.000000 0.000000 0.000000 0.000000 0.000000 0.000000 -24.377400 14.547500 -1.727600 50.100900 0.000000 0.000000 -13.661400 -8.583200 -7.323200 -25.227500 0.000000 0.000000 -3.739200 8.637600 26.271100 21.921500 0.000000 0.000000 -16.286900 -2.771300 1.841200 0.817600 0.000000 0.000000 
-0.003157 -0.651764 0.780616 -6.388000 2.264200 -85.351200 3.019900 1.667600 -0.457800 2.045200 -0.670700 -0.002200 1.808900 -0.165900 -0.045200 0.311200 0.437400 -0.142100 -14.053900 0.992900 -1.039100 -8.751600 -0.337200 -3.105200 8.304500 -10.802000 17.430600 7.654500 -24.826200 49.588300 0.000000 0.000100 71.578000 70.648200 2.354200 -33.457700 0.000000 0.000000 0.000000 0.000000 0.000000 0.000000 1.666700 6.363900 -13.095900 6.136400 22.281200 -10.878400 -0.000100 -0.000100 -90.607100 68.257400 -10.785000 22.839200 0.000000 0.000000 0.000000 0.000000 0.000000 0.000000 -22.835900 16.681800 -0.836800 48.847100 0.000000 0.000000 -13.515700 -8.992200 -6.897700 -25.248700 0.000000 0.000000 -4.026900 8.334200 25.557200 22.172800 0.000000 0.000000 -16.066800 -2.378300 1.715400 0.742600 0.000000 0.000000 
-0.004031 -0.645696 0.781555 -6.390700 1.957500 -84.766300 2.706800 1.866700 -0.470800 1.848900 -0.596400 -0.037600 1.838100 -0.126300 -0.864800 0.337000 0.476400 -0.423800 -13.792000 0.038200 -1.055100 -8.829400 -0.241300 -2.418500 8.087700 -11.237600 17.130700 6.050400 -21.933000 45.736000 0.000000 0.000100 71.998000 70.261500 2.269800 -33.038900 0.000000 0.000000 0.000000 0.000000 0.000000 0.000000 1.995800 6.106200 -13.141900 8.146300 23.783800 -13.846200 -0.000100 -0.000100 -91.106200 65.951800 -11.134500 23.061300 0.000000 0.000000 0.000000 0.000000 0.000000 0.000000 -21.044100 18.912100 -0.447700 46.658900 0.000000 0.000000 -13.093900 -9.407100 -6.368500 -25.267300 0.000000 0.000000 -4.166400 7.987600 24.773900 21.885100 0.000000 0.000000 -15.679800 -1.968500 1.871800 0.699600 0.000000 0.000000 
-0.005893 -0.638531 0.782879 -6.284700 1.753600 -84.810300 2.439800 2.098400 -0.457700 1.675000 -0.569200 -0.062000 1.897500 -0.111000 -1.371300 0.374700 0.461300 -0.582000 -13.548500 -0.779100 -1.057000 -8.966200 -0.256000 -1.809900 7.856100 -11.667400 16.822000 4.706600 -18.674600 41.597700 0.000000 0.000100 72.816300 70.278800 2.482500 -32.359400 0.000000 0.000000 0.000000 0.000000 0.000000 0.000000 2.141600 6.089800 -13.186400 10.962200 25.294700 -17.501000 -0.000100 -0.000100 -91.536400 63.645200 -11.123000 23.281400 0.000000 0.000000 0.000000 0.000000 0.000000 0.000000 -19.194000 21.006200 -0.434200 43.958700 0.000000 0.000000 -13.057000 -9.349100 -6.481400 -25.606500 0.000000 0.000000 -3.960400 7.506100 24.353500 21.170200 0.000000 0.000000 -15.314100 -1.549300 2.120400 0.760400 0.000000 0.000000 
-0.008588 -0.630171 0.784484 -6.080000 1.734100 -85.537700 2.330800 2.386700 -0.419800 1.602100 -0.615200 -0.069600 1.914900 -0.179400 -1.457700 0.396400 0.374100 -0.559400 -13.422500 -1.360200 -1.020300 -9.009800 -0.403300 -1.222900 7.557900 -11.758700 16.416800 3.614400 -15.574000 37.455800 0.000000 0.000100 73.891100 70.602900 2.752900 -31.577600 0.000000 0.000000 0.000000 0.000000 0.000000 0.000000 1.964500 6.426400 -13.333900 14.418500 26.886600 -21.609800 -0.000100 -0.000100 -91.548500 62.654100 -10.874200 23.607300 0.000000 0.000000 0.000000 0.000000 0.000000 0.000000 -17.446800 22.873100 -0.725100 41.030600 0.000000 0.000000 -12.516400 -9.771800 -7.281700 -25.320500 0.000000 0.000000 -3.436600 6.906700 23.943300 20.192100 0.000000 0.000000 -14.886200 -1.099200 2.749500 0.629700 0.000000 0.000000 
